<svg width="42" height="42" viewBox="0 0 42 42" fill="none" xmlns="http://www.w3.org/2000/svg">
<path d="M26.25 7L36.75 10.5V19.25H31.5V33.25C31.5 33.7141 31.3156 34.1592 30.9874 34.4874C30.6592 34.8156 30.2141 35 29.75 35H12.25C11.7859 35 11.3408 34.8156 11.0126 34.4874C10.6844 34.1592 10.5 33.7141 10.5 33.25V19.25H5.25V10.5L15.75 7C15.75 8.39239 16.3031 9.72774 17.2877 10.7123C18.2723 11.6969 19.6076 12.25 21 12.25C22.3924 12.25 23.7277 11.6969 24.7123 10.7123C25.6969 9.72774 26.25 8.39239 26.25 7Z" stroke="white" stroke-width="4" stroke-linecap="round" stroke-linejoin="round"/>
</svg>
