<svg width="50" height="50" viewBox="0 0 50 50" fill="none" xmlns="http://www.w3.org/2000/svg">
<rect width="50" height="50" rx="25" fill="#E7E7E7"/>
<path d="M13.2188 17H36.7812C37.1045 17 37.4145 17.1331 37.643 17.37C37.8716 17.6069 38 17.9281 38 18.2632C38 18.5982 37.8716 18.9195 37.643 19.1563C37.4145 19.3932 37.1045 19.5263 36.7812 19.5263H13.2188C12.8955 19.5263 12.5855 19.3932 12.357 19.1563C12.1284 18.9195 12 18.5982 12 18.2632C12 17.9281 12.1284 17.6069 12.357 17.37C12.5855 17.1331 12.8955 17 13.2188 17ZM16.875 25C16.875 24.665 17.0034 24.3437 17.232 24.1068C17.4605 23.8699 17.7705 23.7368 18.0938 23.7368H31.9062C32.2295 23.7368 32.5395 23.8699 32.768 24.1068C32.9966 24.3437 33.125 24.665 33.125 25C33.125 25.335 32.9966 25.6563 32.768 25.8932C32.5395 26.1301 32.2295 26.2632 31.9062 26.2632H18.0938C17.7705 26.2632 17.4605 26.1301 17.232 25.8932C17.0034 25.6563 16.875 25.335 16.875 25ZM21.75 31.7368C21.75 31.4018 21.8784 31.0805 22.107 30.8437C22.3355 30.6068 22.6455 30.4737 22.9688 30.4737H27.0312C27.3545 30.4737 27.6645 30.6068 27.893 30.8437C28.1216 31.0805 28.25 31.4018 28.25 31.7368C28.25 32.0719 28.1216 32.3931 27.893 32.63C27.6645 32.8669 27.3545 33 27.0312 33H22.9688C22.6455 33 22.3355 32.8669 22.107 32.63C21.8784 32.3931 21.75 32.0719 21.75 31.7368Z" fill="#737373"/>
</svg>
