<svg width="24" height="24" viewBox="0 0 24 24" fill="none" xmlns="http://www.w3.org/2000/svg">
<path d="M20.6244 21.3316L20.4744 21.1816L20.2661 20.9732C19.7868 21.3016 19.1794 21.495 18.3556 21.6056L20.6244 21.3316ZM20.6244 21.3316C20.0445 21.7545 19.3293 21.9792 18.4223 22.1015L20.6244 21.3316ZM14.5 22.25C16.1355 22.249 17.413 22.2374 18.4222 22.1015L14.5 22.25ZM14.5 22.25V21.7499M14.5 22.25V21.7499M2.66847 20.6245L2.81845 20.4745L3.02682 20.2661C2.69847 19.7868 2.50502 19.1795 2.39446 18.3556L2.66847 20.6245ZM2.66847 20.6245C2.24559 20.0446 2.02082 19.3294 1.89853 18.4223C1.76262 17.4131 1.75107 16.1356 1.75009 14.5001H2.25013C2.25133 16.1417 2.26388 17.3838 2.39444 18.3556L2.66847 20.6245ZM14.5 21.7499C16.1416 21.7487 17.3838 21.7362 18.3555 21.6056L14.5 21.7499ZM3.37571 2.66866L3.73401 3.02695C4.21413 2.69834 4.82343 2.50497 5.65179 2.39446L3.37571 2.66866ZM3.37571 2.66866C3.9562 2.24591 4.67397 2.02098 5.58551 1.89861L3.37571 2.66866ZM9.53 1.75014C7.88374 1.75111 6.59912 1.76259 5.58552 1.89861L9.53 1.75014ZM9.53 1.75014V2.25018C7.87841 2.25137 6.62939 2.26387 5.65189 2.39445L9.53 1.75014ZM19.7234 7.9518L19.7226 7.9511L19.8903 7.76451C20.7311 8.52357 21.2851 9.04738 21.645 9.61038L21.1817 9.81684C20.8654 9.34604 20.3706 8.87445 19.5561 8.13749L19.7234 7.9518ZM15.9325 4.20159L19.1472 7.09541L18.8126 7.4677L15.5974 4.57412L15.7644 4.3888L15.7642 4.38857L15.9325 4.20159ZM21.8573 10.6106L22.0514 10.5241C22.2285 11.1682 22.2477 11.9311 22.2498 13.0631H21.7496C21.7468 11.9637 21.7272 11.2808 21.5887 10.7305L21.8574 10.6108L21.8573 10.6106ZM21.6056 18.3566C21.7361 17.384 21.7487 16.1418 21.7499 14.5001H22.2499C22.2489 16.1358 22.2374 17.414 22.1015 18.4223C21.9791 19.33 21.7548 20.0451 21.3312 20.6242L21.1816 20.4745L20.9727 20.2657C21.3017 19.7867 21.495 19.1793 21.6056 18.3566L21.6056 18.3566ZM13.5 21.7501V22.2501H10.5V21.7501H13.5ZM9.5 21.7499V22.25C7.86429 22.249 6.5861 22.2374 5.5778 22.1015C4.67003 21.9792 3.955 21.7549 3.3759 21.3313L3.52555 21.1816L3.73438 20.9728C4.21339 21.3017 4.82079 21.4951 5.64344 21.6056L5.64354 21.6056C6.61703 21.7362 7.85842 21.7487 9.5 21.7499ZM2.25 10.5001V13.5001H1.75V10.5001H2.25ZM2.39444 5.6436C2.26388 6.61708 2.25133 7.85847 2.25013 9.50006H1.75009C1.75107 7.86435 1.76262 6.58617 1.89852 5.57786C2.0209 4.67009 2.2452 3.95505 2.6688 3.37596L3.02727 3.73443C2.69831 4.21344 2.50496 4.82084 2.39445 5.64349L2.39444 5.6436ZM13.3712 2.71923L13.5523 2.24712C14.034 2.51887 14.5127 2.92817 15.1882 3.53314L14.8534 3.90524C14.2042 3.32442 13.7749 2.95878 13.3712 2.71923ZM10.53 2.25058V1.75035C11.4433 1.75238 12.0765 1.76816 12.6183 1.88878L12.4368 2.36113C11.9749 2.26886 11.4074 2.2532 10.53 2.25058Z" fill="white" stroke="white"/>
<path d="M13.0003 2.5V5C13.0003 7.357 13.0003 8.536 13.7323 9.268C14.4643 10 15.6433 10 18.0003 10H22.0003M8.14628 13.023C8.52628 12.34 8.71628 12 9.00028 12C9.28428 12 9.47428 12.34 9.85428 13.023L9.95228 13.199C10.0603 13.393 10.1143 13.489 10.1983 13.553C10.2833 13.617 10.3883 13.641 10.5983 13.688L10.7883 13.732C11.5263 13.899 11.8953 13.982 11.9833 14.264C12.0713 14.546 11.8193 14.841 11.3163 15.429L11.1863 15.581C11.0433 15.748 10.9713 15.831 10.9393 15.935C10.9073 16.039 10.9183 16.15 10.9393 16.373L10.9593 16.576C11.0353 17.361 11.0733 17.754 10.8443 17.928C10.6143 18.102 10.2683 17.943 9.57728 17.625L9.39928 17.543C9.20228 17.453 9.10428 17.407 9.00028 17.407C8.89628 17.407 8.79828 17.453 8.60128 17.543L8.42328 17.625C7.73228 17.944 7.38628 18.102 7.15728 17.928C6.92828 17.754 6.96528 17.361 7.04128 16.576L7.06128 16.373C7.08228 16.15 7.09328 16.039 7.06128 15.935C7.02928 15.831 6.95728 15.748 6.81428 15.581L6.68428 15.429C6.18128 14.841 5.92928 14.547 6.01728 14.264C6.10528 13.982 6.47428 13.899 7.21228 13.732L7.40228 13.688C7.61228 13.641 7.71728 13.618 7.80228 13.553C7.88628 13.489 7.94028 13.393 8.04828 13.199L8.14628 13.023Z" fill="white"/>
<path d="M13.0003 2.5V5C13.0003 7.357 13.0003 8.536 13.7323 9.268C14.4643 10 15.6433 10 18.0003 10H22.0003M8.14628 13.023C8.52628 12.34 8.71628 12 9.00028 12C9.28428 12 9.47428 12.34 9.85428 13.023L9.95228 13.199C10.0603 13.393 10.1143 13.489 10.1983 13.553C10.2833 13.617 10.3883 13.641 10.5983 13.688L10.7883 13.732C11.5263 13.899 11.8953 13.982 11.9833 14.264C12.0713 14.546 11.8193 14.841 11.3163 15.429L11.1863 15.581C11.0433 15.748 10.9713 15.831 10.9393 15.935C10.9073 16.039 10.9183 16.15 10.9393 16.373L10.9593 16.576C11.0353 17.361 11.0733 17.754 10.8443 17.928C10.6143 18.102 10.2683 17.943 9.57728 17.625L9.39928 17.543C9.20228 17.453 9.10428 17.407 9.00028 17.407C8.89628 17.407 8.79828 17.453 8.60128 17.543L8.42328 17.625C7.73228 17.944 7.38628 18.102 7.15728 17.928C6.92828 17.754 6.96528 17.361 7.04128 16.576L7.06128 16.373C7.08228 16.15 7.09328 16.039 7.06128 15.935C7.02928 15.831 6.95728 15.748 6.81428 15.581L6.68428 15.429C6.18128 14.841 5.92928 14.547 6.01728 14.264C6.10528 13.982 6.47428 13.899 7.21228 13.732L7.40228 13.688C7.61228 13.641 7.71728 13.618 7.80228 13.553C7.88628 13.489 7.94028 13.393 8.04828 13.199L8.14628 13.023Z" stroke="white" stroke-width="1.5"/>
</svg>
