<svg width="42" height="42" viewBox="0 0 42 42" fill="none" xmlns="http://www.w3.org/2000/svg">
<path d="M27.3553 13.3549C26.6623 12.6619 26.3158 12.3154 26.1859 11.9158C26.0717 11.5643 26.0717 11.1857 26.1859 10.8342C26.3158 10.4346 26.6623 10.0881 27.3553 9.3951L32.3225 4.42796C31.0044 3.83184 29.541 3.5 28.0003 3.5C22.2014 3.5 17.5003 8.20101 17.5003 14C17.5003 14.8593 17.6036 15.6945 17.7984 16.4939C18.0068 17.3499 18.1111 17.7779 18.0927 18.0483C18.0733 18.3314 18.0311 18.4821 17.9006 18.7339C17.7758 18.9745 17.5369 19.2134 17.0591 19.6913L6.1254 30.625C4.67565 32.0747 4.67565 34.4253 6.1254 35.875C7.57514 37.3247 9.92565 37.3247 11.3754 35.875L22.309 24.9413C22.7869 24.4634 23.0258 24.2245 23.2664 24.0999C23.5184 23.9694 23.6689 23.9272 23.9521 23.9078C24.2224 23.8892 24.6505 23.9935 25.5064 24.202C26.3058 24.3967 27.1411 24.5 28.0003 24.5C33.7993 24.5 38.5003 19.799 38.5003 14C38.5003 12.4593 38.1685 10.9961 37.5725 9.67795L32.6053 14.6451C31.9123 15.3381 31.5658 15.6846 31.1661 15.8145C30.8147 15.9287 30.4362 15.9287 30.0846 15.8145C29.6851 15.6846 29.3386 15.3381 28.6456 14.6451L27.3553 13.3549Z" stroke="white" stroke-width="3.5" stroke-linecap="round" stroke-linejoin="round"/>
</svg>
