<svg width="42" height="42" viewBox="0 0 42 42" fill="none" xmlns="http://www.w3.org/2000/svg">
<path d="M37.7886 34.7494L34.1792 5.87438C34.08 5.08065 33.6943 4.35049 33.0946 3.82117C32.4949 3.29185 31.7225 2.99983 30.9226 3H11.8913C11.0914 2.99983 10.319 3.29185 9.71931 3.82117C9.11959 4.35049 8.73389 5.08065 8.6347 5.87438L5.02532 34.7494C4.96763 35.2111 5.00879 35.6798 5.14608 36.1244C5.28337 36.569 5.51366 36.9793 5.82164 37.3281C6.12963 37.6769 6.50828 37.9562 6.93246 38.1475C7.35664 38.3387 7.81665 38.4376 8.28196 38.4375H14.9577C15.686 38.4397 16.3942 38.1989 16.9701 37.7531C17.5461 37.3074 17.9568 36.6822 18.1372 35.9766L21.407 23.3438L24.6734 35.9667C24.8537 36.6738 25.2645 37.3007 25.8409 37.7482C26.4174 38.1957 27.1265 38.4382 27.8563 38.4375H34.532C34.9973 38.4376 35.4573 38.3387 35.8815 38.1475C36.3056 37.9562 36.6843 37.6769 36.9923 37.3281C37.3003 36.9793 37.5306 36.569 37.6678 36.1244C37.8051 35.6798 37.8463 35.2111 37.7886 34.7494ZM30.3434 6.9375L30.6716 9.5625H12.1424L12.4705 6.9375H30.3434ZM14.4507 34.5H9.02517L10.8627 19.8C12.2748 19.4065 13.5341 18.5935 14.474 17.4685C15.4138 16.3435 15.9898 14.9596 16.1258 13.5H19.4382V15.2177L14.4507 34.5ZM28.3649 34.5L23.3757 15.2177V13.5H26.6881C26.824 14.9595 27.4 16.3432 28.3399 17.468C29.2798 18.5927 30.5392 19.4054 31.9513 19.7984L33.7888 34.5H28.3649Z" fill="white"/>
</svg>
