<svg width="50" height="50" viewBox="0 0 50 50" fill="none" xmlns="http://www.w3.org/2000/svg">
<rect width="50" height="50" rx="25" fill="#E7E7E7"/>
<path fill-rule="evenodd" clip-rule="evenodd" d="M18.2193 18.2193C18.36 18.0789 18.5506 18 18.7493 18C18.9481 18 19.1387 18.0789 19.2793 18.2193L31.2793 30.2193C31.353 30.288 31.4121 30.3708 31.4531 30.4628C31.4941 30.5548 31.5162 30.6541 31.5179 30.7548C31.5197 30.8555 31.5012 30.9555 31.4635 31.0489C31.4257 31.1423 31.3696 31.2272 31.2984 31.2984C31.2272 31.3696 31.1423 31.4257 31.0489 31.4635C30.9555 31.5012 30.8555 31.5197 30.7548 31.5179C30.6541 31.5162 30.5548 31.4941 30.4628 31.4531C30.3708 31.4121 30.288 31.353 30.2193 31.2793L18.2193 19.2793C18.0789 19.1387 18 18.9481 18 18.7493C18 18.5506 18.0789 18.36 18.2193 18.2193Z" fill="#737373"/>
<path fill-rule="evenodd" clip-rule="evenodd" d="M31.2789 18.2193C31.4193 18.36 31.4982 18.5506 31.4982 18.7493C31.4982 18.9481 31.4193 19.1387 31.2789 19.2793L19.2789 31.2793C19.1367 31.4118 18.9486 31.4839 18.7543 31.4805C18.56 31.4771 18.3747 31.3984 18.2372 31.261C18.0998 31.1235 18.0211 30.9382 18.0177 30.7439C18.0143 30.5496 18.0864 30.3615 18.2189 30.2193L30.2189 18.2193C30.3595 18.0789 30.5501 18 30.7489 18C30.9476 18 31.1382 18.0789 31.2789 18.2193Z" fill="#737373"/>
</svg>
