<svg width="20" height="22" viewBox="0 0 20 22" fill="none" xmlns="http://www.w3.org/2000/svg">
<path d="M18.6611 5.09343C15.9001 0.310431 9.78409 -1.32657 5.00109 1.43343C3.10572 2.527 1.62137 4.21208 0.775658 6.23027C-0.070055 8.24846 -0.230442 10.4883 0.31909 12.6064C0.536089 13.4384 1.54109 13.6804 2.12709 13.1374L2.21109 13.0504L4.46309 10.4634C5.14809 9.67643 4.45509 8.49143 3.46609 8.65343L3.35609 8.67643L2.07409 9.01143C2.32042 7.21109 3.17232 5.54824 4.48959 4.29655C5.80686 3.04486 7.51101 2.27891 9.32158 2.12476C11.1321 1.97061 12.9413 2.43744 14.4512 3.44842C15.9611 4.45941 17.0818 5.9543 17.629 7.68709C18.1761 9.41988 18.117 11.2873 17.4615 12.9821C16.8059 14.6768 15.5929 16.0979 14.0222 17.0114C12.4514 17.925 10.6164 18.2765 8.81916 18.0083C7.02195 17.74 5.36962 16.8679 4.13409 15.5354C4.04549 15.4369 3.93819 15.3569 3.81842 15.3002C3.69866 15.2435 3.56881 15.2111 3.43643 15.205C3.30404 15.1989 3.17177 15.2192 3.0473 15.2647C2.92282 15.3101 2.80863 15.3799 2.71135 15.4699C2.61407 15.5599 2.53564 15.6683 2.48063 15.7889C2.42562 15.9094 2.39513 16.0397 2.39092 16.1722C2.38671 16.3047 2.40886 16.4366 2.4561 16.5604C2.50334 16.6843 2.57472 16.7974 2.66609 16.8934C5.76809 20.2444 10.8781 21.1334 15.0011 18.7534C19.7841 15.9934 21.4211 9.87643 18.6611 5.09343ZM10.0011 4.09343C9.75616 4.09346 9.51975 4.18339 9.33672 4.34615C9.15368 4.50891 9.03675 4.73318 9.00809 4.97643L9.00109 5.09343V9.67943L6.29409 12.3864C6.11474 12.5664 6.01062 12.8079 6.00286 13.0618C5.99511 13.3158 6.0843 13.5631 6.25234 13.7537C6.42037 13.9443 6.65464 14.0637 6.90756 14.0878C7.16049 14.1119 7.4131 14.0388 7.61409 13.8834L7.70809 13.8004L10.7081 10.8004C10.8635 10.6449 10.9633 10.4424 10.9921 10.2244L11.0011 10.0934V5.09343C11.0011 4.82821 10.8957 4.57386 10.7082 4.38632C10.5207 4.19879 10.2663 4.09343 10.0011 4.09343Z" fill="white"/>
</svg>
