<svg width="84" height="84" viewBox="0 0 84 84" fill="none" xmlns="http://www.w3.org/2000/svg">
<path d="M14.544 38.3769C15.192 33.4329 17.136 28.8969 20.04 25.1289L9.768 14.8809C4.32 21.3609 0.768 29.4729 0 38.4009H14.544V38.3769Z" fill="#00C2D0"/>
<path d="M45.623 0V14.544C50.567 15.192 55.103 17.136 58.871 20.04L69.119 9.768C62.663 4.296 54.527 0.768 45.623 0Z" fill="#00C2D0"/>
<path d="M20.04 58.8476C17.136 55.0796 15.192 50.5436 14.544 45.5996H0C0.768 54.5036 4.296 62.6396 9.768 69.1196L20.04 58.8476Z" fill="#00C2D0"/>
<path d="M25.1529 20.04C28.9209 17.136 33.4569 15.192 38.4009 14.544V0C29.4969 0.768 21.3609 4.296 14.8809 9.768L25.1529 20.04Z" fill="#00C2D0"/>
<path d="M69.4569 45.623C68.8089 50.567 66.8649 55.103 63.9609 58.871L74.2329 69.143C79.6809 62.663 83.2329 54.551 84.0009 45.623H69.4569Z" fill="#00C2D0"/>
<path d="M63.9609 25.1529C66.8649 28.9209 68.8089 33.4569 69.4569 38.4009H84.0009C83.2329 29.4969 79.7049 21.3609 74.2329 14.8809L63.9609 25.1529Z" fill="#00C2D0"/>
<path d="M38.3769 69.4569C33.4329 68.8089 28.8969 66.8649 25.1289 63.9609L14.8809 74.2329C21.3609 79.6809 29.4729 83.2329 38.4009 84.0009V69.4569H38.3769Z" fill="#00C2D0"/>
<path d="M58.8476 63.9609C55.0796 66.8649 50.5436 68.8089 45.5996 69.4569V84.0009C54.5036 83.2329 62.6396 79.7049 69.1196 74.2329L58.8476 63.9609Z" fill="#00C2D0"/>
</svg>
