<svg width="24" height="24" viewBox="0 0 24 24" fill="none" xmlns="http://www.w3.org/2000/svg">
<path d="M12 9.05899V6.49999C11.9997 6.30237 11.9409 6.10926 11.831 5.94501C11.7211 5.78075 11.565 5.6527 11.3825 5.57699C11.2 5.50127 10.9991 5.48129 10.8052 5.51955C10.6113 5.55781 10.4331 5.65261 10.293 5.79199L4 12L10.293 18.207C10.3857 18.3002 10.4958 18.3741 10.6171 18.4246C10.7385 18.475 10.8686 18.501 11 18.501C11.1314 18.501 11.2615 18.475 11.3829 18.4246C11.5042 18.3741 11.6143 18.3002 11.707 18.207C11.8945 18.0195 11.9999 17.7652 12 17.5V15.011C14.75 15.079 17.755 15.577 20 19V18C20 13.367 16.5 9.55699 12 9.05899Z" fill="white"/>
</svg>
