<svg width="42" height="42" viewBox="0 0 42 42" fill="none" xmlns="http://www.w3.org/2000/svg">
<path d="M15.75 11.8126V26.2501M26.25 15.7501V30.1876M27.1303 36.3091L35.6615 32.0444C36.3283 31.7119 36.75 31.0294 36.75 30.2839V8.43514C36.75 6.97214 35.21 6.02014 33.901 6.67464L27.1303 10.0591C26.5755 10.3374 25.9227 10.3374 25.3697 10.0591L16.6303 5.69114C16.3569 5.55452 16.0556 5.4834 15.75 5.4834C15.4444 5.4834 15.1431 5.55452 14.8697 5.69114L6.3385 9.95589C5.67 10.2901 5.25 10.9726 5.25 11.7164V33.5651C5.25 35.0281 6.79 35.9801 8.099 35.3256L14.8697 31.9411C15.4245 31.6629 16.0773 31.6629 16.6303 31.9411L25.3697 36.3109C25.9245 36.5874 26.5773 36.5874 27.1303 36.3109V36.3091Z" stroke="white" stroke-width="3.9375" stroke-linecap="round" stroke-linejoin="round"/>
</svg>
