<svg width="24" height="24" viewBox="0 0 24 24" fill="none" xmlns="http://www.w3.org/2000/svg">
<path d="M10.5 8H18.5M10.5 12H13M18.5 12H16M10.5 16H13M18.5 16H16M7 7.5H6C4.114 7.5 3.172 7.5 2.586 8.086C2 8.672 2 9.614 2 11.5V18C2 18.663 2.26339 19.2989 2.73223 19.7678C3.20107 20.2366 3.83696 20.5 4.5 20.5C5.16304 20.5 5.79893 20.2366 6.26777 19.7678C6.73661 19.2989 7 18.663 7 18V7.5Z" stroke="white" stroke-width="1.5" stroke-linecap="round" stroke-linejoin="round"/>
<path d="M16 3.5H11C10.07 3.5 9.605 3.5 9.224 3.602C8.71513 3.73825 8.2511 4.0061 7.8786 4.3786C7.5061 4.7511 7.23825 5.21513 7.102 5.724C7 6.105 7 6.57 7 7.5V18C7 18.3283 6.93534 18.6534 6.8097 18.9567C6.68406 19.26 6.49991 19.5356 6.26777 19.7678C6.03562 19.9999 5.76002 20.1841 5.45671 20.3097C5.15339 20.4353 4.8283 20.5 4.5 20.5H16C18.828 20.5 20.243 20.5 21.121 19.621C22 18.743 22 17.328 22 14.5V9.5C22 6.672 22 5.257 21.121 4.379C20.243 3.5 18.828 3.5 16 3.5Z" stroke="white" stroke-width="1.5" stroke-linecap="round" stroke-linejoin="round"/>
</svg>
