<svg width="50" height="50" viewBox="0 0 50 50" fill="none" xmlns="http://www.w3.org/2000/svg">
<rect width="50" height="50" rx="25" fill="#E7E7E7"/>
<path d="M33 18C33.2652 18 33.5196 18.1054 33.7071 18.2929C33.8946 18.4804 34 18.7348 34 19C34 19.2652 33.8946 19.5196 33.7071 19.7071C33.5196 19.8946 33.2652 20 33 20H32L31.997 20.071L31.064 33.142C31.0281 33.6466 30.8023 34.1188 30.4321 34.4636C30.0619 34.8083 29.5749 35 29.069 35H20.93C20.4241 35 19.9371 34.8083 19.5669 34.4636C19.1967 34.1188 18.9709 33.6466 18.935 33.142L18.002 20.072L18 20H17C16.7348 20 16.4804 19.8946 16.2929 19.7071C16.1054 19.5196 16 19.2652 16 19C16 18.7348 16.1054 18.4804 16.2929 18.2929C16.4804 18.1054 16.7348 18 17 18H33ZM29.997 20H20.003L20.931 33H29.069L29.997 20ZM27 15C27.2652 15 27.5196 15.1054 27.7071 15.2929C27.8946 15.4804 28 15.7348 28 16C28 16.2652 27.8946 16.5196 27.7071 16.7071C27.5196 16.8946 27.2652 17 27 17H23C22.7348 17 22.4804 16.8946 22.2929 16.7071C22.1054 16.5196 22 16.2652 22 16C22 15.7348 22.1054 15.4804 22.2929 15.2929C22.4804 15.1054 22.7348 15 23 15H27Z" fill="#DA5151"/>
</svg>
