<svg width="42" height="42" viewBox="0 0 42 42" fill="none" xmlns="http://www.w3.org/2000/svg">
<path d="M5 10.6875C5 9.17908 5.59922 7.73244 6.66583 6.66583C7.73244 5.59922 9.17908 5 10.6875 5H17.25C17.7141 5 18.1592 5.18437 18.4874 5.51256C18.8156 5.84075 19 6.28587 19 6.75C19 7.21413 18.8156 7.65925 18.4874 7.98744C18.1592 8.31563 17.7141 8.5 17.25 8.5H10.6875C9.48 8.5 8.5 9.48 8.5 10.6875V17.25C8.5 17.7141 8.31563 18.1592 7.98744 18.4874C7.65925 18.8156 7.21413 19 6.75 19C6.28587 19 5.84075 18.8156 5.51256 18.4874C5.18437 18.1592 5 17.7141 5 17.25V10.6875ZM22.5 6.75C22.5 6.28587 22.6844 5.84075 23.0126 5.51256C23.3408 5.18437 23.7859 5 24.25 5H30.8125C32.3209 5 33.7676 5.59922 34.8342 6.66583C35.9008 7.73244 36.5 9.17908 36.5 10.6875V17.25C36.5 17.7141 36.3156 18.1592 35.9874 18.4874C35.6592 18.8156 35.2141 19 34.75 19C34.2859 19 33.8408 18.8156 33.5126 18.4874C33.1844 18.1592 33 17.7141 33 17.25V10.6875C33 9.48 32.02 8.5 30.8125 8.5H24.25C23.7859 8.5 23.3408 8.31563 23.0126 7.98744C22.6844 7.65925 22.5 7.21413 22.5 6.75ZM6.75 22.5C7.21413 22.5 7.65925 22.6844 7.98744 23.0126C8.31563 23.3408 8.5 23.7859 8.5 24.25V30.5255L16.4187 22.6067C16.9875 22.0379 17.6628 21.5867 18.4059 21.2789C19.1491 20.971 19.9456 20.8126 20.75 20.8126C21.5544 20.8126 22.3509 20.971 23.0941 21.2789C23.8372 21.5867 24.5125 22.0379 25.0813 22.6067L33 30.5255V24.25C33 23.7859 33.1844 23.3408 33.5126 23.0126C33.8408 22.6844 34.2859 22.5 34.75 22.5C35.2141 22.5 35.6592 22.6844 35.9874 23.0126C36.3156 23.3408 36.5 23.7859 36.5 24.25V30.8125C36.5 32.3209 35.9008 33.7676 34.8342 34.8342C33.7676 35.9008 32.3209 36.5 30.8125 36.5H24.25C23.7859 36.5 23.3408 36.3156 23.0126 35.9874C22.6844 35.6592 22.5 35.2141 22.5 34.75C22.5 34.2859 22.6844 33.8408 23.0126 33.5126C23.3408 33.1844 23.7859 33 24.25 33H30.5255L22.6067 25.0813C22.363 24.8373 22.0735 24.6438 21.7549 24.5118C21.4363 24.3798 21.0949 24.3118 20.75 24.3118C20.4051 24.3118 20.0637 24.3798 19.7451 24.5118C19.4265 24.6438 19.137 24.8373 18.8933 25.0813L10.9745 33H17.25C17.7141 33 18.1592 33.1844 18.4874 33.5126C18.8156 33.8408 19 34.2859 19 34.75C19 35.2141 18.8156 35.6592 18.4874 35.9874C18.1592 36.3156 17.7141 36.5 17.25 36.5H10.6875C9.17908 36.5 7.73244 35.9008 6.66583 34.8342C5.59922 33.7676 5 32.3209 5 30.8125V24.25C5 23.7859 5.18437 23.3408 5.51256 23.0126C5.84075 22.6844 6.28587 22.5 6.75 22.5ZM30.375 15.0625C30.375 16.1068 29.9602 17.1083 29.2217 17.8467C28.4833 18.5852 27.4818 19 26.4375 19C25.3932 19 24.3917 18.5852 23.6533 17.8467C22.9148 17.1083 22.5 16.1068 22.5 15.0625C22.5 14.0182 22.9148 13.0167 23.6533 12.2783C24.3917 11.5398 25.3932 11.125 26.4375 11.125C27.4818 11.125 28.4833 11.5398 29.2217 12.2783C29.9602 13.0167 30.375 14.0182 30.375 15.0625Z" fill="white"/>
</svg>
