<svg width="42" height="42" viewBox="0 0 42 42" fill="none" xmlns="http://www.w3.org/2000/svg">
<path d="M5.25 8.75C5.25 7.82174 5.61875 6.9315 6.27513 6.27513C6.9315 5.61875 7.82174 5.25 8.75 5.25H33.25C34.1783 5.25 35.0685 5.61875 35.7249 6.27513C36.3813 6.9315 36.75 7.82174 36.75 8.75V33.25C36.75 34.1783 36.3813 35.0685 35.7249 35.7249C35.0685 36.3813 34.1783 36.75 33.25 36.75H8.75C7.82174 36.75 6.9315 36.3813 6.27513 35.7249C5.61875 35.0685 5.25 34.1783 5.25 33.25V8.75Z" stroke="white" stroke-width="4" stroke-linecap="round" stroke-linejoin="round"/>
<path d="M14.875 15.75C15.3582 15.75 15.75 15.3582 15.75 14.875C15.75 14.3918 15.3582 14 14.875 14C14.3918 14 14 14.3918 14 14.875C14 15.3582 14.3918 15.75 14.875 15.75Z" fill="white" stroke="white" stroke-width="3" stroke-linecap="round" stroke-linejoin="round"/>
<path d="M27.125 15.75C27.6082 15.75 28 15.3582 28 14.875C28 14.3918 27.6082 14 27.125 14C26.6418 14 26.25 14.3918 26.25 14.875C26.25 15.3582 26.6418 15.75 27.125 15.75Z" fill="white" stroke="white" stroke-width="3" stroke-linecap="round" stroke-linejoin="round"/>
<path d="M27.125 28C27.6082 28 28 27.6082 28 27.125C28 26.6418 27.6082 26.25 27.125 26.25C26.6418 26.25 26.25 26.6418 26.25 27.125C26.25 27.6082 26.6418 28 27.125 28Z" fill="white" stroke="white" stroke-width="3" stroke-linecap="round" stroke-linejoin="round"/>
<path d="M14.875 28C15.3582 28 15.75 27.6082 15.75 27.125C15.75 26.6418 15.3582 26.25 14.875 26.25C14.3918 26.25 14 26.6418 14 27.125C14 27.6082 14.3918 28 14.875 28Z" fill="white" stroke="white" stroke-width="3" stroke-linecap="round" stroke-linejoin="round"/>
</svg>
